<?xml version="1.0" encoding="utf-8"?>
<svg viewBox="-100 0 400 100" xmlns="http://www.w3.org/2000/svg" > 
  <style>
    .st {
    font-family: verdana;
    font-size: 6px;
    }
    .bt {
    font-family: verdana;
    font-size: 15px;
    }
  </style>
  <defs>
    <filter id="f3" x="0" y="0" width="200%" height="200%">
      <feOffset result="offOut" in="SourceAlpha" dx="10" dy="10" />
      <feGaussianBlur result="blurOut" in="offOut" stdDeviation="10" />
      <feBlend in="SourceGraphic" in2="blurOut" mode="normal" />
    </filter>
    <g id="spd">
      <path d="M 50 50
	       m -28 28
	       a 40 40 1 1 1 56 0
	       l -6 -6
	       a 32 32 1 1 0 -44 0
	       z"
	    fill="#ddd"/>
      <circle cx="50" cy="50" r="4" fill="#ddd"/>
      <text text-anchor="middle" x="30" y="72" class="st">0</text>
      <text text-anchor="middle" x="24" y="42" class="st">1</text>
      <text text-anchor="middle" x="50" y="25" class="st">10</text>
      <text text-anchor="middle" x="72" y="42" class="st">100</text>
      <text text-anchor="middle" x="65" y="72" class="st">1000</text>
    </g>
    <path id="needle" d="M 50 50
	     m -2 0
	     a 2 2 1 1 0 4 0
	     l -2 -38
	     z"
	  />
  </defs>

  <path d="M -50 100
	   A 50 50 0 0 0 0 50
	   V 50
	   A 50 50 0 0 1 50 0
	   H 150
	   A 50 50 0 0 1 200 50
	   A 50 50 0 0 0 250 100
	   z"
	fill="#fff" filter="url(#f3)"/>

  <use x="0" y="0" href="#spd"/>
  <use x="100" y="0" href="#spd"/>

  <use x="0" y="0" href="#needle" fill="#d00" transform="rotate(-67.5, 50, 50)"/>
  <use x="100" y="0" href="#needle" fill="#00d" transform="rotate(67.5, 150, 50)"/>

  <text text-anchor="middle" x="50" y="75" class="bt" fill="#d00"><title>Download</title>▼</text>
  <text text-anchor="middle" x="50" y="90" class="bt"><title>Download Speed Mbps</title>78.5</text>
  <text text-anchor="middle" x="75" y="90" class="st">Mbps</text>
  <text text-anchor="middle" x="50" y="98" class="st"><title>Latency While Downloading</title>128ms</text>

  <text text-anchor="middle" x="150" y="75" class="bt" fill="#00d"><title>Upload</title>▲</text>
  <text text-anchor="middle" x="150" y="90" class="bt"><title>Upload Speed Mbps</title>39.1</text>
  <text text-anchor="middle" x="175" y="90" class="st">Mbps</text>
  <text text-anchor="middle" x="150" y="98" class="st"><title>Latency While Uploading</title>80.1ms</text>

  <text text-anchor="middle" x="100" y="20" class="bt"><title>Connected to server</title>🟢</text>
  <text text-anchor="middle" x="100" y="98" class="st"><title>Latency While Idle</title>32.4ms</text>
</svg>
